<?xml version="1.0" encoding="UTF-8" standalone="no"?>
<!DOCTYPE svg PUBLIC "-//W3C//DTD SVG 1.1//EN" "http://www.w3.org/Graphics/SVG/1.1/DTD/svg11.dtd">
<svg version="1.1" xmlns="http://www.w3.org/2000/svg" xmlns:xl="http://www.w3.org/1999/xlink" xmlns:dc="http://purl.org/dc/elements/1.1/" viewBox="107 329 1310 298" width="1310" height="298">
  <defs/>
  <g id="huawei-landscape" fill-opacity="1" stroke-opacity="1" fill="none" stroke="none" stroke-dasharray="none">
    <title>huawei-landscape</title>
    <rect fill="white" x="107" y="329" width="1310" height="298"/>
    <g id="huawei-landscape_Layer_1">
      <title>Layer 1</title>
      <g id="Graphic_3">
        <path d="M 811.6074 430.7276 L 840.0074 430.7276 L 840.0074 509.7276 C 840.0074 549.8276 817.9074 572.8276 779.4074 572.8276 C 741.3074 572.8276 719.4074 550.2276 719.4074 510.8276 L 719.4074 430.8276 L 747.8074 430.8276 L 747.8074 509.9276 C 747.8074 533.3276 759.3074 545.8276 779.8074 545.8276 C 800.3074 545.8276 811.6074 533.6276 811.6074 510.9276 Z M 651.6074 487.1276 L 587.4074 487.1276 L 587.4074 430.7276 L 559.0074 430.7276 L 559.0074 570.7276 L 587.4074 570.7276 L 587.4074 513.8276 L 651.5074 513.8276 L 651.5074 570.7276 L 679.9074 570.7276 L 679.9074 430.7276 L 651.5074 430.7276 L 651.5074 487.1276 Z M 1362.8074 430.7276 L 1362.8074 570.5276 L 1390.8074 570.5276 L 1390.8074 430.7276 Z M 1251.3074 510.4276 L 1303.0074 510.4276 L 1303.0074 484.9276 L 1251.3074 484.9276 L 1251.3074 456.2276 L 1326.3074 456.2276 L 1326.3074 430.8276 L 1223.3074 430.8276 L 1223.3074 570.6276 L 1329.0074 570.6276 L 1329.0074 545.1276 L 1251.3074 545.1276 Z M 1139.9074 526.9276 L 1108.1074 430.6276 L 1084.9074 430.6276 L 1053.1074 526.9276 L 1022.2074 430.7276 L 992.0074 430.7276 L 1040.8074 570.6276 L 1064.3074 570.6276 L 1096.1074 478.7276 L 1127.9074 570.6276 L 1151.6074 570.6276 L 1200.3074 430.7276 L 1170.8074 430.7276 Z M 941.5074 431.5276 L 1002.6074 570.6276 L 972.8074 570.6276 L 960.2074 541.5276 L 896.1074 541.5276 L 895.2074 543.5276 L 883.4074 570.6276 L 854.4074 570.6276 L 916.1074 430.7276 L 940.9074 430.7276 Z M 948.3074 512.9276 L 928.1074 466.0276 L 908.0074 512.9276 L 906.6074 516.1276 L 949.6074 516.1276 Z" fill="#24272a"/>
      </g>
      <g id="Graphic_2">
        <path d="M 279.4074 555.8276 C 279.8074 555.5276 279.9074 554.9276 279.7074 554.4276 C 252.1332 495.16085 217.73365 439.31613 177.2074 388.0276 C 177.2074 388.0276 145.0074 418.6276 147.3074 449.3276 C 148.3955 463.62223 155.12307 476.8975 166.0074 486.2276 C 194.1074 513.6276 262.1074 548.2276 277.9074 556.1276 C 278.4074 556.3276 279.0074 556.2276 279.4074 555.8276 M 268.9074 579.2276 C 268.7074 578.6276 268.1074 578.2276 267.4074 578.2276 L 154.2074 582.1276 C 166.5074 604.0276 187.2074 621.0276 208.7074 615.8276 C 223.6074 612.1276 257.2074 588.6276 268.3074 580.6276 C 269.2074 579.9276 268.9074 579.3276 268.9074 579.2276 M 270.6074 569.1276 C 271.2074 568.2276 270.2074 567.4276 270.2074 567.4276 C 220.5074 533.8276 124.1074 482.2276 124.1074 482.2276 C 117.63085 502.07876 120.77976 523.8145 132.62355 541.01154 C 144.46734 558.2086 163.65175 568.9005 184.5074 569.9276 C 186.2074 570.2276 251.8074 569.9276 269.4074 569.8276 C 269.9074 569.7276 270.3074 569.5276 270.6074 569.1276 M 278.1074 339.12762 C 273.2074 339.52762 259.9074 342.62762 259.9074 342.62762 C 229.9074 350.32762 222.8074 377.62762 222.8074 377.62762 C 217.3074 394.7276 222.9074 413.6276 222.9074 413.6276 C 232.9074 458.0276 282.1074 531.1276 292.7074 546.4276 C 293.4074 547.2276 294.0074 546.9276 294.0074 546.9276 C 294.6074 546.7276 295.1074 546.2276 295.1074 545.5276 C 311.5074 382.3276 278.1074 339.12762 278.1074 339.12762 M 315.6074 546.7276 C 316.2074 546.9276 316.9074 546.7276 317.2074 546.1276 C 328.1074 530.4276 377.0074 457.7276 387.0074 413.5276 C 387.0074 413.5276 392.4074 392.1276 387.2074 377.52762 C 387.2074 377.52762 379.8074 349.82762 349.8074 342.52762 C 349.8074 342.52762 341.2074 340.32762 332.0074 339.02762 C 332.0074 339.02762 298.4074 382.2276 314.8074 545.4276 C 314.7074 546.0276 315.1074 546.5276 315.6074 546.7276 M 342.4074 578.3276 C 341.86885 578.4363 341.39872 578.7618 341.1074 579.2276 C 341.0074 579.8276 341.1074 580.3276 341.5074 580.7276 C 352.3074 588.5276 385.2074 611.5276 401.0074 615.9276 C 401.0074 615.9276 430.3074 625.9276 455.7074 582.2276 L 342.4074 578.3276 M 485.9074 482.0276 C 485.9074 482.0276 389.7074 533.7276 339.9074 567.3276 C 339.4074 567.7276 339.1074 568.3276 339.3074 568.9276 C 339.3074 568.9276 339.8074 569.8276 340.5074 569.8276 C 358.3074 569.8276 425.7074 569.9276 427.5074 569.6276 C 434.2074 569.1276 440.8074 567.6276 447.0074 565.1276 C 447.0074 565.1276 471.0074 557.5276 483.4074 530.2276 C 483.4074 530.2276 494.5074 508.0276 485.9074 482.0276 M 330.8074 555.8276 C 331.2074 556.1276 331.8074 556.2276 332.3074 555.9276 C 348.5074 547.8276 416.0074 513.5276 443.9074 486.2276 C 443.9074 486.2276 461.6074 472.0276 462.5074 449.1276 C 464.5074 417.4276 432.6074 388.0276 432.6074 388.0276 C 432.6074 388.0276 373.6074 459.5276 330.3074 554.0276 C 330.1664 554.6734 330.35354 555.3471 330.8074 555.8276" fill="#ce0e2d"/>
      </g>
    </g>
  </g>
</svg>
